<svg width="64" height="64" viewBox="0 0 64 64" fill="none" xmlns="http://www.w3.org/2000/svg">
<rect width="64" height="64" fill="#1563B7"/>
<g filter="url(#filter0_d_518_551)">
<path d="M21.5682 43L25.4318 19.7273H34.75C36.4621 19.7273 37.8485 19.9811 38.9091 20.4886C39.9773 20.9962 40.7235 21.7008 41.1477 22.6023C41.572 23.4962 41.6856 24.5265 41.4886 25.6932C41.3295 26.6023 41.0076 27.3977 40.5227 28.0795C40.0455 28.7614 39.4545 29.322 38.75 29.7614C38.0455 30.2008 37.2803 30.5114 36.4545 30.6932L36.4091 30.9205C37.2879 30.9583 38.0795 31.2083 38.7841 31.6705C39.4886 32.125 40.0152 32.7689 40.3636 33.6023C40.7121 34.4356 40.7917 35.4242 40.6023 36.5682C40.3977 37.803 39.9091 38.9053 39.1364 39.875C38.3636 40.8371 37.3333 41.5985 36.0455 42.1591C34.7652 42.7197 33.2538 43 31.5114 43H21.5682ZM27.1705 38.9773H31.1818C32.5455 38.9773 33.5871 38.7121 34.3068 38.1818C35.0265 37.6515 35.4583 36.9508 35.6023 36.0795C35.7008 35.4356 35.6364 34.8674 35.4091 34.375C35.1894 33.8826 34.8144 33.4962 34.2841 33.2159C33.7614 32.9356 33.0985 32.7955 32.2955 32.7955H28.1818L27.1705 38.9773ZM28.75 29.4659H32.3977C33.0644 29.4659 33.6818 29.3485 34.25 29.1136C34.8258 28.8712 35.2992 28.5303 35.6705 28.0909C36.0492 27.6439 36.2879 27.1174 36.3864 26.5114C36.5227 25.6629 36.3333 24.9848 35.8182 24.4773C35.3106 23.9621 34.5152 23.7045 33.4318 23.7045H29.7045L28.75 29.4659Z" fill="#F3F3F3"/>
</g>
<defs>
<filter id="filter0_d_518_551" x="21.5681" y="19.7273" width="21.2161" height="25.2727" filterUnits="userSpaceOnUse" color-interpolation-filters="sRGB">
<feFlood flood-opacity="0" result="BackgroundImageFix"/>
<feColorMatrix in="SourceAlpha" type="matrix" values="0 0 0 0 0 0 0 0 0 0 0 0 0 0 0 0 0 0 127 0" result="hardAlpha"/>
<feOffset dx="1" dy="2"/>
<feComposite in2="hardAlpha" operator="out"/>
<feColorMatrix type="matrix" values="0 0 0 0 0 0 0 0 0 0 0 0 0 0 0 0 0 0 1 0"/>
<feBlend mode="normal" in2="BackgroundImageFix" result="effect1_dropShadow_518_551"/>
<feBlend mode="normal" in="SourceGraphic" in2="effect1_dropShadow_518_551" result="shape"/>
</filter>
</defs>
</svg>
