{
	"asset": {
		"generator": "Khronos glTF Blender I/O v3.5.30",
		"version": "2.0"
	},
	"extensionsUsed": ["KHR_materials_specular", "KHR_materials_ior"],
	"scene": 0,
	"scenes": [
		{
			"name": "Scene",
			"nodes": [16]
		}
	],
	"nodes": [
		{
			"name": "Default Ambient Light"
		},
		{
			"mesh": 0,
			"name": "CHIP"
		},
		{
			"mesh": 1,
			"name": "CHIP.001"
		},
		{
			"mesh": 2,
			"name": "CHIP.002"
		},
		{
			"mesh": 3,
			"name": "CHIP.003"
		},
		{
			"mesh": 4,
			"name": "CHIP.004"
		},
		{
			"mesh": 5,
			"name": "CHIP.007"
		},
		{
			"mesh": 6,
			"name": "KORT front"
		},
		{
			"children": [7],
			"name": "Group 12"
		},
		{
			"mesh": 7,
			"name": "Text bud"
		},
		{
			"mesh": 8,
			"name": "text buy"
		},
		{
			"children": [9, 10],
			"name": "Group 16"
		},
		{
			"mesh": 9,
			"name": "Kortnamn"
		},
		{
			"mesh": 10,
			"name": "kortnummer"
		},
		{
			"children": [1, 2, 3, 4, 5, 6, 8, 11, 12, 13],
			"name": "Group 17"
		},
		{
			"children": [0, 14],
			"name": "Scene"
		},
		{
			"children": [15],
			"name": "Node_0"
		}
	],
	"materials": [
		{
			"doubleSided": true,
			"extensions": {
				"KHR_materials_specular": {
					"specularColorFactor": [
						1.3280634016891721, 1.153794553278451, 0.9498305474687668
					]
				},
				"KHR_materials_ior": {
					"ior": 1.4500000476837158
				}
			},
			"name": "Gold plate1",
			"pbrMetallicRoughness": {
				"baseColorFactor": [
					0.6066383719444275, 0.3577076196670532, 0.06635943055152893, 1
				],
				"roughnessFactor": 0.2023809552192688
			}
		},
		{
			"doubleSided": true,
			"extensions": {
				"KHR_materials_specular": {
					"specularColorFactor": [
						1.3115133718579781, 1.1592830029846413, 0.9665499387252082
					]
				},
				"KHR_materials_ior": {
					"ior": 1.4500000476837158
				}
			},
			"name": "Gold plate1.001",
			"pbrMetallicRoughness": {
				"baseColorFactor": [
					0.06464893370866776, 0.04053575173020363, 0.010006971657276154, 1
				],
				"metallicFactor": 0.7295454740524292,
				"roughnessFactor": 0.2023809552192688
			}
		},
		{
			"doubleSided": true,
			"extensions": {
				"KHR_materials_specular": {
					"specularColorFactor": [
						1.122635359577515, 1.2280954091567717, 1.1203095385338158
					]
				},
				"KHR_materials_ior": {
					"ior": 1.4500000476837158
				}
			},
			"name": "Gold plate1.002",
			"pbrMetallicRoughness": {
				"baseColorFactor": [
					0.137632355093956, 0.20383068919181824, 0.13617241382598877, 1
				],
				"roughnessFactor": 0.2023809552192688
			}
		},
		{
			"doubleSided": true,
			"extensions": {
				"KHR_materials_specular": {
					"specularColorFactor": [
						1.185678807220699, 1.185678807220699, 1.185678807220699
					]
				},
				"KHR_materials_ior": {
					"ior": 1.4500000476837158
				}
			},
			"name": "Text BUY BUD",
			"pbrMetallicRoughness": {
				"metallicFactor": 0.38863635063171387,
				"roughnessFactor": 0.4160173237323761
			}
		}
	],
	"meshes": [
		{
			"name": "Mesh_0.001",
			"primitives": [
				{
					"attributes": {
						"POSITION": 0,
						"TEXCOORD_0": 1,
						"NORMAL": 2
					},
					"indices": 3,
					"material": 0
				}
			]
		},
		{
			"name": "Mesh_0.002",
			"primitives": [
				{
					"attributes": {
						"POSITION": 4,
						"TEXCOORD_0": 5,
						"NORMAL": 6
					},
					"indices": 3,
					"material": 1
				}
			]
		},
		{
			"name": "Mesh_0.011",
			"primitives": [
				{
					"attributes": {
						"POSITION": 7,
						"TEXCOORD_0": 8,
						"NORMAL": 9
					},
					"indices": 10,
					"material": 1
				}
			]
		},
		{
			"name": "Mesh_0.004",
			"primitives": [
				{
					"attributes": {
						"POSITION": 11,
						"TEXCOORD_0": 12,
						"NORMAL": 13
					},
					"indices": 14,
					"material": 1
				}
			]
		},
		{
			"name": "Mesh_0.010",
			"primitives": [
				{
					"attributes": {
						"POSITION": 15,
						"TEXCOORD_0": 16,
						"NORMAL": 17
					},
					"indices": 18,
					"material": 1
				}
			]
		},
		{
			"name": "Mesh_0.008",
			"primitives": [
				{
					"attributes": {
						"POSITION": 19,
						"TEXCOORD_0": 20,
						"NORMAL": 21
					},
					"indices": 22,
					"material": 1
				}
			]
		},
		{
			"name": "Mesh_6.001",
			"primitives": [
				{
					"attributes": {
						"POSITION": 23,
						"TEXCOORD_0": 24,
						"NORMAL": 25
					},
					"indices": 26,
					"material": 2
				}
			]
		},
		{
			"name": "Mesh_3.001",
			"primitives": [
				{
					"attributes": {
						"POSITION": 27,
						"TEXCOORD_0": 28,
						"NORMAL": 29
					},
					"indices": 30,
					"material": 3
				}
			]
		},
		{
			"name": "Mesh_4.001",
			"primitives": [
				{
					"attributes": {
						"POSITION": 31,
						"TEXCOORD_0": 32,
						"NORMAL": 33
					},
					"indices": 34,
					"material": 3
				}
			]
		},
		{
			"name": "Mesh_2.001",
			"primitives": [
				{
					"attributes": {
						"POSITION": 35,
						"TEXCOORD_0": 36,
						"NORMAL": 37
					},
					"indices": 38,
					"material": 3
				}
			]
		},
		{
			"name": "Mesh_1.001",
			"primitives": [
				{
					"attributes": {
						"POSITION": 39,
						"TEXCOORD_0": 40,
						"NORMAL": 41
					},
					"indices": 42,
					"material": 3
				}
			]
		}
	],
	"accessors": [
		{
			"bufferView": 0,
			"componentType": 5126,
			"count": 810,
			"max": [2.4497063159942627, 1.2232801914215088, 0.13966155052185059],
			"min": [1.7633683681488037, 0.6338103413581848, 0.08579093962907791],
			"type": "VEC3"
		},
		{
			"bufferView": 1,
			"componentType": 5126,
			"count": 810,
			"type": "VEC2"
		},
		{
			"bufferView": 2,
			"componentType": 5126,
			"count": 810,
			"type": "VEC3"
		},
		{
			"bufferView": 3,
			"componentType": 5123,
			"count": 2988,
			"type": "SCALAR"
		},
		{
			"bufferView": 4,
			"componentType": 5126,
			"count": 810,
			"max": [2.4613144397735596, 1.2334760427474976, 0.1343970000743866],
			"min": [1.7519904375076294, 0.6242448091506958, 0.08196444809436798],
			"type": "VEC3"
		},
		{
			"bufferView": 5,
			"componentType": 5126,
			"count": 810,
			"type": "VEC2"
		},
		{
			"bufferView": 6,
			"componentType": 5126,
			"count": 810,
			"type": "VEC3"
		},
		{
			"bufferView": 7,
			"componentType": 5126,
			"count": 1112,
			"max": [2.228262424468994, 1.2120215892791748, 0.14116205275058746],
			"min": [2.2189977169036865, 0.6532259583473206, 0.13378164172172546],
			"type": "VEC3"
		},
		{
			"bufferView": 8,
			"componentType": 5126,
			"count": 1112,
			"type": "VEC2"
		},
		{
			"bufferView": 9,
			"componentType": 5126,
			"count": 1112,
			"type": "VEC3"
		},
		{
			"bufferView": 10,
			"componentType": 5123,
			"count": 2988,
			"type": "SCALAR"
		},
		{
			"bufferView": 11,
			"componentType": 5126,
			"count": 1099,
			"max": [1.994530439376831, 1.2120215892791748, 0.14206662774085999],
			"min": [1.985265851020813, 0.6532259583473206, 0.13468621671199799],
			"type": "VEC3"
		},
		{
			"bufferView": 12,
			"componentType": 5126,
			"count": 1099,
			"type": "VEC2"
		},
		{
			"bufferView": 13,
			"componentType": 5126,
			"count": 1099,
			"type": "VEC3"
		},
		{
			"bufferView": 14,
			"componentType": 5123,
			"count": 2988,
			"type": "SCALAR"
		},
		{
			"bufferView": 15,
			"componentType": 5126,
			"count": 1177,
			"max": [2.437877655029297, 1.026848316192627, 0.13981084525585175],
			"min": [1.7751084566116333, 1.014941692352295, 0.1348625123500824],
			"type": "VEC3"
		},
		{
			"bufferView": 16,
			"componentType": 5126,
			"count": 1177,
			"type": "VEC2"
		},
		{
			"bufferView": 17,
			"componentType": 5126,
			"count": 1177,
			"type": "VEC3"
		},
		{
			"bufferView": 18,
			"componentType": 5123,
			"count": 2988,
			"type": "SCALAR"
		},
		{
			"bufferView": 19,
			"componentType": 5126,
			"count": 1164,
			"max": [2.437877893447876, 0.8508850932121277, 0.1398269385099411],
			"min": [1.7751084566116333, 0.8390091061592102, 0.13485784828662872],
			"type": "VEC3"
		},
		{
			"bufferView": 20,
			"componentType": 5126,
			"count": 1164,
			"type": "VEC2"
		},
		{
			"bufferView": 21,
			"componentType": 5126,
			"count": 1164,
			"type": "VEC3"
		},
		{
			"bufferView": 22,
			"componentType": 5123,
			"count": 2988,
			"type": "SCALAR"
		},
		{
			"bufferView": 23,
			"componentType": 5126,
			"count": 426,
			"max": [2.786503791809082, 2.792973756790161, 0.13119889795780182],
			"min": [-2.6904492378234863, -0.8909425735473633, 0.07119890302419662],
			"type": "VEC3"
		},
		{
			"bufferView": 24,
			"componentType": 5126,
			"count": 426,
			"type": "VEC2"
		},
		{
			"bufferView": 25,
			"componentType": 5126,
			"count": 426,
			"type": "VEC3"
		},
		{
			"bufferView": 26,
			"componentType": 5123,
			"count": 1860,
			"type": "SCALAR"
		},
		{
			"bufferView": 27,
			"componentType": 5126,
			"count": 578,
			"max": [2.451608896255493, 2.373363733291626, 0.14079244434833527],
			"min": [1.7596876621246338, 2.1145925521850586, 0.14079244434833527],
			"type": "VEC3"
		},
		{
			"bufferView": 28,
			"componentType": 5126,
			"count": 578,
			"type": "VEC2"
		},
		{
			"bufferView": 29,
			"componentType": 5126,
			"count": 578,
			"type": "VEC3"
		},
		{
			"bufferView": 30,
			"componentType": 5123,
			"count": 1722,
			"type": "SCALAR"
		},
		{
			"bufferView": 31,
			"componentType": 5126,
			"count": 438,
			"max": [1.7182667255401611, 2.3702361583709717, 0.14079244434833527],
			"min": [1.0482206344604492, 2.1113405227661133, 0.14079244434833527],
			"type": "VEC3"
		},
		{
			"bufferView": 32,
			"componentType": 5126,
			"count": 438,
			"type": "VEC2"
		},
		{
			"bufferView": 33,
			"componentType": 5126,
			"count": 438,
			"type": "VEC3"
		},
		{
			"bufferView": 34,
			"componentType": 5123,
			"count": 1296,
			"type": "SCALAR"
		},
		{
			"bufferView": 35,
			"componentType": 5126,
			"count": 2241,
			"max": [-1.221553087234497, -0.038924627006053925, 0.14079244434833527],
			"min": [-2.367774724960327, -0.17213484644889832, 0.14079244434833527],
			"type": "VEC3"
		},
		{
			"bufferView": 36,
			"componentType": 5126,
			"count": 2241,
			"type": "VEC2"
		},
		{
			"bufferView": 37,
			"componentType": 5126,
			"count": 2241,
			"type": "VEC3"
		},
		{
			"bufferView": 38,
			"componentType": 5123,
			"count": 6639,
			"type": "SCALAR"
		},
		{
			"bufferView": 39,
			"componentType": 5126,
			"count": 3148,
			"max": [-0.09174096584320068, -0.334050714969635, 0.14079244434833527],
			"min": [-2.3727922439575195, -0.5058972835540771, 0.14079244434833527],
			"type": "VEC3"
		},
		{
			"bufferView": 40,
			"componentType": 5126,
			"count": 3148,
			"type": "VEC2"
		},
		{
			"bufferView": 41,
			"componentType": 5126,
			"count": 3148,
			"type": "VEC3"
		},
		{
			"bufferView": 42,
			"componentType": 5123,
			"count": 9384,
			"type": "SCALAR"
		}
	],
	"bufferViews": [
		{
			"buffer": 0,
			"byteLength": 9720,
			"byteOffset": 0,
			"target": 34962
		},
		{
			"buffer": 0,
			"byteLength": 6480,
			"byteOffset": 9720,
			"target": 34962
		},
		{
			"buffer": 0,
			"byteLength": 9720,
			"byteOffset": 16200,
			"target": 34962
		},
		{
			"buffer": 0,
			"byteLength": 5976,
			"byteOffset": 25920,
			"target": 34963
		},
		{
			"buffer": 0,
			"byteLength": 9720,
			"byteOffset": 31896,
			"target": 34962
		},
		{
			"buffer": 0,
			"byteLength": 6480,
			"byteOffset": 41616,
			"target": 34962
		},
		{
			"buffer": 0,
			"byteLength": 9720,
			"byteOffset": 48096,
			"target": 34962
		},
		{
			"buffer": 0,
			"byteLength": 13344,
			"byteOffset": 57816,
			"target": 34962
		},
		{
			"buffer": 0,
			"byteLength": 8896,
			"byteOffset": 71160,
			"target": 34962
		},
		{
			"buffer": 0,
			"byteLength": 13344,
			"byteOffset": 80056,
			"target": 34962
		},
		{
			"buffer": 0,
			"byteLength": 5976,
			"byteOffset": 93400,
			"target": 34963
		},
		{
			"buffer": 0,
			"byteLength": 13188,
			"byteOffset": 99376,
			"target": 34962
		},
		{
			"buffer": 0,
			"byteLength": 8792,
			"byteOffset": 112564,
			"target": 34962
		},
		{
			"buffer": 0,
			"byteLength": 13188,
			"byteOffset": 121356,
			"target": 34962
		},
		{
			"buffer": 0,
			"byteLength": 5976,
			"byteOffset": 134544,
			"target": 34963
		},
		{
			"buffer": 0,
			"byteLength": 14124,
			"byteOffset": 140520,
			"target": 34962
		},
		{
			"buffer": 0,
			"byteLength": 9416,
			"byteOffset": 154644,
			"target": 34962
		},
		{
			"buffer": 0,
			"byteLength": 14124,
			"byteOffset": 164060,
			"target": 34962
		},
		{
			"buffer": 0,
			"byteLength": 5976,
			"byteOffset": 178184,
			"target": 34963
		},
		{
			"buffer": 0,
			"byteLength": 13968,
			"byteOffset": 184160,
			"target": 34962
		},
		{
			"buffer": 0,
			"byteLength": 9312,
			"byteOffset": 198128,
			"target": 34962
		},
		{
			"buffer": 0,
			"byteLength": 13968,
			"byteOffset": 207440,
			"target": 34962
		},
		{
			"buffer": 0,
			"byteLength": 5976,
			"byteOffset": 221408,
			"target": 34963
		},
		{
			"buffer": 0,
			"byteLength": 5112,
			"byteOffset": 227384,
			"target": 34962
		},
		{
			"buffer": 0,
			"byteLength": 3408,
			"byteOffset": 232496,
			"target": 34962
		},
		{
			"buffer": 0,
			"byteLength": 5112,
			"byteOffset": 235904,
			"target": 34962
		},
		{
			"buffer": 0,
			"byteLength": 3720,
			"byteOffset": 241016,
			"target": 34963
		},
		{
			"buffer": 0,
			"byteLength": 6936,
			"byteOffset": 244736,
			"target": 34962
		},
		{
			"buffer": 0,
			"byteLength": 4624,
			"byteOffset": 251672,
			"target": 34962
		},
		{
			"buffer": 0,
			"byteLength": 6936,
			"byteOffset": 256296,
			"target": 34962
		},
		{
			"buffer": 0,
			"byteLength": 3444,
			"byteOffset": 263232,
			"target": 34963
		},
		{
			"buffer": 0,
			"byteLength": 5256,
			"byteOffset": 266676,
			"target": 34962
		},
		{
			"buffer": 0,
			"byteLength": 3504,
			"byteOffset": 271932,
			"target": 34962
		},
		{
			"buffer": 0,
			"byteLength": 5256,
			"byteOffset": 275436,
			"target": 34962
		},
		{
			"buffer": 0,
			"byteLength": 2592,
			"byteOffset": 280692,
			"target": 34963
		},
		{
			"buffer": 0,
			"byteLength": 26892,
			"byteOffset": 283284,
			"target": 34962
		},
		{
			"buffer": 0,
			"byteLength": 17928,
			"byteOffset": 310176,
			"target": 34962
		},
		{
			"buffer": 0,
			"byteLength": 26892,
			"byteOffset": 328104,
			"target": 34962
		},
		{
			"buffer": 0,
			"byteLength": 13278,
			"byteOffset": 354996,
			"target": 34963
		},
		{
			"buffer": 0,
			"byteLength": 37776,
			"byteOffset": 368276,
			"target": 34962
		},
		{
			"buffer": 0,
			"byteLength": 25184,
			"byteOffset": 406052,
			"target": 34962
		},
		{
			"buffer": 0,
			"byteLength": 37776,
			"byteOffset": 431236,
			"target": 34962
		},
		{
			"buffer": 0,
			"byteLength": 18768,
			"byteOffset": 469012,
			"target": 34963
		}
	],
	"buffers": [
		{
			"byteLength": 487780,
			"uri": "data:application/octet-stream;base64,"
		}
	]
}
